<svg width="863" height="231" viewBox="0 0 863 231" fill="none" xmlns="http://www.w3.org/2000/svg">
<path d="M138.196 161.104C118.573 130.613 138.78 124.742 151.337 125.619C156.739 123.866 170.521 122.64 182.435 131.752C194.349 140.864 206.088 123.574 210.468 113.79C211.198 108.679 216.95 97.6681 234.12 94.5138C255.583 90.5709 204.774 56.3995 266.095 64.2852C327.417 72.171 267.847 79.6185 301.136 85.3138C334.425 91.009 328.293 89.6948 353.259 64.2852C378.226 38.8757 365.523 79.6186 398.812 64.2852C432.101 48.9519 426.845 71.2947 446.117 89.6948C465.39 108.095 442.175 130.438 421.589 131.752C401.002 133.066 392.68 146.647 398.812 172.057C404.944 197.466 352.383 204.038 338.367 189.142C324.351 174.247 295.442 190.895 296.318 213.238C297.194 235.581 236.749 241.276 234.12 204.038C231.492 166.8 206.526 169.866 188.567 185.2C170.609 200.533 162.725 199.219 138.196 161.104Z" fill="#007FFF"/>
<path d="M148.966 159.11C130.72 130.831 149.509 125.387 161.184 126.2C166.207 124.574 179.023 123.437 190.101 131.888C201.179 140.339 212.093 124.304 216.166 115.23C216.845 110.489 222.194 100.278 238.159 97.3524C258.115 93.6957 210.872 62.0044 267.89 69.3178C324.908 76.6312 269.519 83.5382 300.472 88.8201C331.424 94.102 325.722 92.8831 348.937 69.3178C372.151 45.7525 360.341 83.5383 391.293 69.3178C422.246 55.0974 417.359 75.8186 435.279 92.8831C453.199 109.948 431.613 130.669 412.471 131.888C393.33 133.107 385.591 145.702 391.293 169.267C396.995 192.833 348.122 198.927 335.09 185.113C322.057 171.299 295.177 186.738 295.992 207.459C296.806 228.18 240.603 233.462 238.159 198.927C235.715 164.392 212.501 167.236 195.803 181.456C179.104 195.677 171.773 194.458 148.966 159.11Z" fill="#A8D7FF"/>
<path fill-rule="evenodd" clip-rule="evenodd" d="M384.88 54.5993C387.8 55.552 392.458 55.5092 400.459 51.8242C408.915 47.9289 415.335 46.2203 420.516 46.481C425.932 46.7535 429.672 49.1542 432.689 52.5803C434.922 55.1162 436.882 58.3809 438.884 61.7152C439.427 62.6199 439.974 63.5296 440.529 64.4314C443.218 68.7942 446.354 73.4039 450.915 77.7584C456.167 82.7725 458.729 88.2746 458.98 93.8221C459.228 99.3235 457.187 104.506 453.917 108.916C447.442 117.65 435.716 123.969 424.606 124.678C414.909 125.298 408.736 128.733 405.475 134.384C402.118 140.202 401.41 149.085 404.406 161.501C406.212 168.983 403.617 175.169 398.689 179.72C393.891 184.151 386.909 187.048 379.564 188.586C372.179 190.132 364.137 190.365 356.976 189.227C349.898 188.102 343.259 185.565 339.134 181.182C333.357 175.043 324.218 175.067 316.01 179.781C307.835 184.475 301.6 193.34 301.988 203.233C302.265 210.299 297.641 215.666 291.553 219.039C285.441 222.425 277.361 224.142 269.288 223.912C261.207 223.681 252.837 221.488 246.242 216.721C239.562 211.892 234.845 204.512 234.127 194.341C232.849 176.22 226.298 169.331 219.308 167.768C211.8 166.089 201.979 169.998 193.249 177.452C188.724 181.315 184.563 184.376 180.449 185.998C176.172 187.683 171.948 187.81 167.545 185.89C163.314 184.045 159.131 180.399 154.564 175.041C149.97 169.651 144.797 162.295 138.645 152.736C128.716 137.307 127.913 126.644 133.325 119.933C135.91 116.727 139.617 114.881 143.323 113.882C146.848 112.932 150.572 112.692 153.832 112.87C160.169 111.015 174.515 110.067 186.998 119.614C189.39 121.444 191.564 121.834 193.576 121.485C195.71 121.116 197.962 119.859 200.228 117.85C204.675 113.908 208.429 107.742 210.564 103.076C211.697 96.6488 218.491 85.1366 236.443 81.8388C238.725 81.4195 239.355 80.7248 239.549 80.4045C239.778 80.0258 239.948 79.2748 239.612 77.72C239.28 76.1895 238.58 74.4112 237.715 72.321C237.634 72.1261 237.552 71.9285 237.469 71.7285C236.703 69.8851 235.853 67.8403 235.274 65.8603C234.638 63.6843 234.204 61.2014 234.763 58.8082C235.366 56.2329 237.025 54.1375 239.784 52.7197C242.41 51.37 246.013 50.6338 250.714 50.439C255.455 50.2425 261.542 50.5897 269.294 51.5867C277.006 52.5784 282.878 53.5706 287.303 54.567C291.685 55.5539 294.814 56.5802 296.932 57.7088C298.97 58.7947 300.784 60.3692 301.012 62.737C301.223 64.9178 299.926 66.6271 299.116 67.5679C298.651 68.1071 298.141 68.6183 297.7 69.054C297.635 69.1191 297.571 69.1824 297.508 69.2442C297.126 69.622 296.803 69.9408 296.512 70.2556C296.435 70.3396 296.366 70.4172 296.304 70.4888C296.391 70.5334 296.491 70.5814 296.603 70.6326C297.935 71.2396 300.349 71.9308 304.452 72.6327C312.834 74.0669 318.518 75.0188 322.826 75.2877C327.056 75.5517 329.643 75.1299 331.912 74.0277C334.288 72.8735 336.6 70.844 340.048 67.2442C341.228 66.0128 342.555 64.5829 344.053 62.9676C346.774 60.035 350.062 56.491 354.069 52.4123C357.261 49.164 359.963 46.8548 362.324 45.3447C364.676 43.84 366.898 42.9948 369.071 43C371.332 43.0055 373.107 43.9275 374.514 45.0919C375.793 46.1501 376.906 47.5314 377.861 48.7165L377.962 48.8409C380.064 51.4488 381.904 53.6279 384.88 54.5993ZM295.693 70.0971C295.695 70.0968 295.708 70.1085 295.727 70.1331C295.7 70.1097 295.691 70.0974 295.693 70.0971ZM365.387 50.1035C363.534 51.2887 361.171 53.2646 358.121 56.3686C354.135 60.4256 351.021 63.7844 348.359 66.6562C346.834 68.3003 345.458 69.7848 344.151 71.1493C340.687 74.7644 337.77 77.4717 334.397 79.1104C330.917 80.801 327.235 81.2281 322.472 80.9308C317.788 80.6384 311.754 79.6189 303.492 78.2054C299.273 77.4835 296.266 76.6961 294.245 75.7749C292.366 74.9188 290.327 73.4623 290.242 70.9346C290.204 69.8092 290.598 68.8656 290.992 68.1889C291.386 67.5106 291.89 66.913 292.337 66.4283C292.725 66.0082 293.154 65.5848 293.529 65.2142C293.589 65.1553 293.647 65.0978 293.704 65.0418C294.145 64.6053 294.51 64.2352 294.812 63.8846C295.024 63.6385 295.157 63.4556 295.239 63.3285C295.07 63.1837 294.771 62.9687 294.258 62.6954C292.818 61.9278 290.28 61.0341 286.053 60.0821C281.867 59.1395 276.187 58.174 268.568 57.1943C260.991 56.2198 255.251 55.9099 250.95 56.0882C246.608 56.2681 243.952 56.9386 242.383 57.7452C240.946 58.4836 240.474 59.294 240.288 60.0917C240.058 61.0715 240.179 62.4288 240.72 64.2778C241.207 65.9433 241.934 67.696 242.723 69.5961C242.801 69.784 242.879 69.9734 242.958 70.1642C243.795 72.1863 244.7 74.4227 245.156 76.5271C245.607 78.607 245.746 81.1109 244.406 83.325C243.031 85.5973 240.554 86.8329 237.471 87.3993C221.481 90.3368 216.667 100.404 216.112 104.294L216.056 104.686L215.894 105.047C213.619 110.129 209.387 117.298 203.998 122.075C201.293 124.472 198.103 126.441 194.547 127.056C190.871 127.693 187.11 126.827 183.545 124.1C172.566 115.703 159.825 116.863 155.05 118.412L154.525 118.582L153.975 118.544C151.08 118.342 147.789 118.535 144.803 119.34C141.802 120.149 139.33 121.511 137.746 123.475C134.821 127.103 133.726 134.621 143.42 149.683C149.532 159.181 154.543 166.283 158.887 171.38C163.258 176.508 166.767 179.379 169.819 180.71C172.698 181.966 175.345 181.929 178.364 180.739C181.545 179.486 185.104 176.961 189.559 173.158C198.787 165.279 210.428 159.987 220.55 162.251C231.19 164.631 238.437 174.828 239.786 193.945C240.382 202.393 244.206 208.265 249.572 212.144C255.022 216.083 262.201 218.053 269.451 218.26C276.708 218.467 283.739 216.899 288.797 214.097C293.878 211.282 296.481 207.558 296.32 203.453C295.832 191.003 303.614 180.373 313.178 174.881C322.709 169.409 335.032 168.558 343.272 177.314C346.156 180.378 351.343 182.606 357.87 183.643C364.315 184.668 371.658 184.463 378.398 183.052C385.179 181.633 391.064 179.054 394.834 175.572C398.475 172.21 400.151 168.045 398.891 162.823C395.755 149.829 396.142 139.218 400.559 131.564C405.073 123.743 413.355 119.731 424.244 119.036C433.72 118.431 443.895 112.921 449.355 105.556C452.054 101.916 453.489 97.9801 453.313 94.0761C453.139 90.2184 451.376 86.0276 446.992 81.8417C441.916 76.9962 438.483 71.913 435.696 67.3907C435.035 66.3181 434.421 65.2976 433.838 64.3286C431.889 61.088 430.286 58.4234 428.425 56.3102C426.186 53.7673 423.794 52.3072 420.23 52.1279C416.433 51.9369 411.026 53.1854 402.838 56.9568C394.194 60.9384 387.957 61.5528 383.115 59.9728C378.422 58.441 375.65 55.0014 373.655 52.5252L373.54 52.383C372.464 51.0484 371.687 50.1011 370.891 49.4424C370.179 48.8527 369.637 48.6555 369.058 48.6541C368.391 48.6525 367.249 48.9128 365.387 50.1035ZM295.44 63.5408C295.439 63.5409 295.434 63.5337 295.426 63.5188C295.437 63.5332 295.44 63.5407 295.44 63.5408Z" fill="#313030"/>
<path d="M854.804 139.733C874.427 109.079 854.22 103.177 841.663 104.058C836.261 102.296 822.479 101.063 810.565 110.224C798.651 119.385 786.912 102.003 782.532 92.1665C781.802 87.0282 776.05 75.9589 758.88 72.7878C737.417 68.824 788.226 34.4708 726.905 42.3984C665.583 50.3261 725.153 57.8133 691.864 63.5389C658.575 69.2644 664.707 67.9431 639.741 42.3984C614.774 16.8537 627.477 57.8133 594.188 42.3984C560.899 26.9835 566.155 49.4453 546.883 67.9431C527.61 86.441 550.825 108.903 571.411 110.224C591.998 111.545 600.32 125.199 594.188 150.743C588.056 176.288 640.617 182.894 654.633 167.92C668.649 152.945 697.558 169.682 696.682 192.143C695.806 214.605 756.251 220.33 758.88 182.894C761.508 145.458 786.474 148.541 804.433 163.956C822.391 179.371 830.275 178.05 854.804 139.733Z" fill="#007FFF"/>
<path d="M844.034 137.727C862.28 109.299 843.491 103.825 831.816 104.642C826.793 103.008 813.977 101.865 802.899 110.361C791.821 118.857 780.907 102.736 776.834 93.6137C776.155 88.8483 770.806 78.5824 754.841 75.6415C734.885 71.9654 782.128 40.1055 725.11 47.4578C668.092 54.8101 723.481 61.7539 692.528 67.0638C661.576 72.3738 667.278 71.1485 644.063 47.4578C620.849 23.7672 632.659 61.7539 601.707 47.4578C570.754 33.1617 575.641 53.9932 557.721 71.1484C539.801 88.3037 561.387 109.135 580.529 110.361C599.67 111.586 607.409 124.248 601.707 147.939C596.005 171.629 644.878 177.756 657.91 163.869C670.943 149.981 697.823 165.503 697.008 186.334C696.194 207.165 752.397 212.475 754.841 177.756C757.285 143.037 780.499 145.897 797.197 160.193C813.896 174.489 821.227 173.263 844.034 137.727Z" fill="#A8D7FF"/>
<path fill-rule="evenodd" clip-rule="evenodd" d="M608.12 32.661C605.2 33.6188 600.542 33.5758 592.541 29.8711C584.085 25.9551 577.665 24.2374 572.484 24.4995C567.068 24.7734 563.328 27.1869 560.311 30.6313C558.078 33.1807 556.118 36.4627 554.116 39.8148C553.573 40.7242 553.026 41.6388 552.471 42.5454C549.782 46.9314 546.646 51.5656 542.085 55.9433C536.833 60.984 534.271 66.5154 534.02 72.0925C533.772 77.6231 535.813 82.8328 539.083 87.2665C545.558 96.0471 557.284 102.4 568.394 103.113C578.091 103.735 584.264 107.189 587.525 112.87C590.882 118.719 591.59 127.65 588.594 140.131C586.788 147.653 589.383 153.872 594.311 158.447C599.109 162.902 606.091 165.814 613.436 167.36C620.821 168.915 628.863 169.149 636.024 168.005C643.102 166.873 649.741 164.323 653.866 159.917C659.643 153.745 668.782 153.77 676.99 158.508C685.165 163.227 691.4 172.14 691.012 182.085C690.735 189.189 695.359 194.584 701.447 197.975C707.559 201.379 715.639 203.106 723.712 202.874C731.793 202.642 740.163 200.438 746.758 195.645C753.438 190.791 758.155 183.371 758.873 173.146C760.151 154.929 766.702 148.003 773.692 146.432C781.2 144.744 791.021 148.673 799.751 156.167C804.276 160.051 808.437 163.128 812.551 164.758C816.828 166.453 821.052 166.581 825.455 164.65C829.686 162.795 833.869 159.13 838.436 153.743C843.03 148.324 848.203 140.93 854.355 131.32C864.284 115.808 865.087 105.089 859.675 98.342C857.09 95.1194 853.383 93.2629 849.677 92.2589C846.152 91.3042 842.428 91.0628 839.168 91.2418C832.831 89.3766 818.485 88.4234 806.002 98.0218C803.61 99.8609 801.436 100.253 799.424 99.9029C797.29 99.5317 795.038 98.2678 792.772 96.2479C788.325 92.2856 784.571 86.0867 782.436 81.3956C781.303 74.9342 774.509 63.3607 756.557 60.0454C754.275 59.6239 753.645 58.9255 753.451 58.6034C753.222 58.2228 753.052 57.4678 753.388 55.9047C753.72 54.366 754.42 52.5783 755.285 50.477C755.366 50.281 755.448 50.0824 755.531 49.8813C756.297 48.0281 757.147 45.9725 757.726 43.9819C758.362 41.7943 758.796 39.2982 758.237 36.8923C757.634 34.3033 755.975 32.1967 753.216 30.7714C750.59 29.4145 746.987 28.6744 742.286 28.4785C737.545 28.281 731.458 28.6301 723.706 29.6323C715.994 30.6294 710.122 31.6269 705.697 32.6285C701.315 33.6207 698.186 34.6525 696.068 35.7871C694.03 36.8787 692.216 38.4616 691.988 40.842C691.777 43.0343 693.074 44.7528 693.884 45.6985C694.349 46.2407 694.859 46.7545 695.3 47.1926C695.365 47.258 695.429 47.3217 695.492 47.3838C695.874 47.7636 696.197 48.0841 696.488 48.4006C696.565 48.485 696.634 48.563 696.696 48.635C696.609 48.6799 696.509 48.7281 696.397 48.7796C695.065 49.3898 692.651 50.0847 688.548 50.7903C680.166 52.2321 674.482 53.1891 670.174 53.4594C665.944 53.7248 663.357 53.3009 661.088 52.1928C658.712 51.0324 656.4 48.9921 652.952 45.3732C651.772 44.1352 650.445 42.6977 648.947 41.0738C646.226 38.1256 642.938 34.5627 638.931 30.4624C635.739 27.1968 633.037 24.8753 630.676 23.3572C628.324 21.8445 626.102 20.9948 623.929 21C621.668 21.0055 619.893 21.9324 618.486 23.103C617.207 24.1668 616.094 25.5555 615.139 26.7469L615.038 26.8719C612.936 29.4937 611.096 31.6844 608.12 32.661ZM697.307 48.2412C697.305 48.2409 697.292 48.2527 697.273 48.2774C697.3 48.2539 697.309 48.2415 697.307 48.2412ZM627.613 28.1412C629.466 29.3327 631.829 31.3192 634.879 34.4397C638.865 38.5182 641.979 41.895 644.641 44.782C646.166 46.4349 647.542 47.9273 648.849 49.299C652.313 52.9334 655.23 55.6551 658.603 57.3025C662.083 59.0021 665.765 59.4314 670.528 59.1325C675.212 58.8386 681.246 57.8136 689.508 56.3926C693.727 55.6669 696.734 54.8754 698.755 53.9492C700.634 53.0886 702.673 51.6243 702.758 49.0832C702.796 47.9518 702.402 47.0032 702.008 46.3228C701.614 45.641 701.11 45.0402 700.663 44.5529C700.275 44.1306 699.846 43.705 699.471 43.3324C699.411 43.2732 699.353 43.2153 699.296 43.159C698.855 42.7203 698.49 42.3481 698.188 41.9956C697.976 41.7483 697.843 41.5644 697.761 41.4367C697.93 41.2911 698.229 41.0749 698.742 40.8001C700.182 40.0285 702.72 39.13 706.947 38.173C711.133 37.2253 716.813 36.2547 724.432 35.2698C732.009 34.2901 737.749 33.9786 742.05 34.1578C746.392 34.3387 749.048 35.0128 750.617 35.8236C752.054 36.566 752.526 37.3807 752.712 38.1827C752.942 39.1676 752.821 40.5322 752.28 42.391C751.793 44.0653 751.066 45.8274 750.277 47.7376C750.199 47.9265 750.121 48.1168 750.042 48.3087C749.205 50.3415 748.3 52.5898 747.844 54.7054C747.393 56.7964 747.254 59.3137 748.594 61.5395C749.969 63.8238 752.446 65.066 755.529 65.6355C771.519 68.5886 776.333 78.7092 776.888 82.6198L776.944 83.0138L777.106 83.3774C779.381 88.4862 783.613 95.693 789.002 100.496C791.707 102.906 794.897 104.885 798.453 105.503C802.129 106.143 805.89 105.273 809.455 102.531C820.434 94.0897 833.175 95.2564 837.95 96.8133L838.475 96.9845L839.025 96.9459C841.92 96.7428 845.211 96.9373 848.197 97.7462C851.198 98.559 853.67 99.9286 855.254 101.903C858.179 105.55 859.274 113.108 849.58 128.251C843.468 137.799 838.457 144.939 834.113 150.063C829.742 155.219 826.233 158.105 823.181 159.443C820.302 160.705 817.655 160.668 814.636 159.472C811.455 158.212 807.896 155.674 803.441 151.85C794.213 143.929 782.572 138.61 772.45 140.885C761.81 143.278 754.563 153.529 753.214 172.747C752.618 181.241 748.794 187.144 743.428 191.043C737.978 195.004 730.799 196.984 723.549 197.192C716.292 197.401 709.261 195.824 704.203 193.007C699.122 190.177 696.519 186.433 696.68 182.307C697.168 169.79 689.386 159.104 679.822 153.583C670.291 148.081 657.968 147.225 649.728 156.028C646.844 159.109 641.657 161.348 635.13 162.392C628.685 163.422 621.342 163.216 614.602 161.797C607.821 160.37 601.936 157.778 598.166 154.277C594.525 150.897 592.849 146.711 594.109 141.461C597.245 128.397 596.858 117.729 592.441 110.035C587.927 102.172 579.645 98.1392 568.756 97.4404C559.28 96.8322 549.105 91.2934 543.645 83.8883C540.946 80.2293 539.511 76.2726 539.687 72.3478C539.861 68.4695 541.624 64.2565 546.008 60.0483C551.084 55.177 554.517 50.0668 557.304 45.5204C557.965 44.4421 558.579 43.4162 559.162 42.442C561.111 39.1842 562.714 36.5054 564.575 34.381C566.814 31.8245 569.206 30.3567 572.77 30.1765C576.567 29.9844 581.974 31.2396 590.162 35.031C598.806 39.0338 605.043 39.6515 609.885 38.063C614.578 36.5231 617.35 33.0652 619.345 30.5759L619.46 30.4329C620.536 29.0912 621.313 28.1389 622.109 27.4767C622.821 26.8839 623.363 26.6856 623.942 26.6842C624.609 26.6826 625.751 26.9443 627.613 28.1412ZM697.56 41.65C697.561 41.6501 697.566 41.6429 697.574 41.6279C697.563 41.6425 697.56 41.6499 697.56 41.65Z" fill="#313030"/>
<path d="M671.804 118.104C691.427 87.6129 671.22 81.7424 658.663 82.6186C653.261 80.8662 639.479 79.6395 627.565 88.7519C615.651 97.8643 603.912 80.5741 599.532 70.79C598.802 65.6789 593.05 54.6681 575.88 51.5138C554.417 47.5709 605.226 13.3995 543.905 21.2852C482.583 29.171 542.153 36.6185 508.864 42.3138C475.575 48.009 481.707 46.6948 456.741 21.2852C431.774 -4.12432 444.477 36.6186 411.188 21.2852C377.899 5.95187 383.155 28.2947 363.883 46.6948C344.61 65.0948 367.825 87.4376 388.411 88.7519C408.998 90.0662 417.32 103.647 411.188 129.057C405.056 154.466 457.617 161.038 471.633 146.142C485.649 131.247 514.558 147.895 513.682 170.238C512.806 192.581 573.251 198.276 575.88 161.038C578.508 123.8 603.474 126.866 621.433 142.2C639.391 157.533 647.275 156.219 671.804 118.104Z" fill="#007FFF"/>
<path d="M661.034 116.11C679.28 87.8314 660.491 82.387 648.816 83.1996C643.793 81.5744 630.977 80.4367 619.899 88.8877C608.821 97.3388 597.907 81.3035 593.834 72.2295C593.155 67.4894 587.806 57.2777 571.841 54.3524C551.885 50.6957 599.128 19.0044 542.11 26.3178C485.092 33.6312 540.481 40.5382 509.528 45.8201C478.576 51.102 484.278 49.8831 461.063 26.3178C437.849 2.75252 449.659 40.5383 418.707 26.3178C387.754 12.0974 392.641 32.8186 374.721 49.8831C356.801 66.9476 378.387 87.6689 397.529 88.8877C416.67 90.1066 424.409 102.702 418.707 126.267C413.005 149.833 461.878 155.927 474.91 142.113C487.943 128.299 514.823 143.738 514.008 164.459C513.194 185.18 569.397 190.462 571.841 155.927C574.285 121.392 597.499 124.236 614.197 138.456C630.896 152.677 638.227 151.458 661.034 116.11Z" fill="#A8D7FF"/>
<path fill-rule="evenodd" clip-rule="evenodd" d="M425.12 11.5993C422.2 12.552 417.542 12.5092 409.541 8.82416C401.085 4.92887 394.665 3.22029 389.484 3.48099C384.068 3.75348 380.328 6.15417 377.311 9.58031C375.078 12.1162 373.118 15.3809 371.116 18.7152C370.573 19.6199 370.026 20.5296 369.471 21.4314C366.782 25.7942 363.646 30.4039 359.085 34.7584C353.833 39.7725 351.271 45.2746 351.02 50.8221C350.772 56.3235 352.813 61.5056 356.083 65.9159C362.558 74.65 374.284 80.9692 385.394 81.6785C395.091 82.2976 401.264 85.7334 404.525 91.3836C407.882 97.2015 408.59 106.085 405.594 118.501C403.788 125.983 406.383 132.169 411.311 136.72C416.109 141.151 423.091 144.048 430.436 145.586C437.821 147.132 445.863 147.365 453.024 146.227C460.102 145.102 466.741 142.565 470.866 138.182C476.643 132.043 485.782 132.067 493.99 136.781C502.165 141.475 508.4 150.34 508.012 160.233C507.735 167.299 512.359 172.666 518.447 176.039C524.559 179.425 532.639 181.142 540.712 180.912C548.793 180.681 557.163 178.488 563.758 173.721C570.438 168.892 575.155 161.512 575.873 151.341C577.151 133.22 583.702 126.331 590.692 124.768C598.2 123.089 608.021 126.998 616.751 134.452C621.276 138.315 625.437 141.376 629.551 142.998C633.828 144.683 638.052 144.81 642.455 142.89C646.686 141.045 650.869 137.399 655.436 132.041C660.03 126.651 665.203 119.295 671.355 109.736C681.284 94.3067 682.087 83.6442 676.675 76.9328C674.09 73.7273 670.383 71.8805 666.677 70.8819C663.152 69.9322 659.428 69.6921 656.168 69.8702C649.831 68.0148 635.485 67.0667 623.002 76.6143C620.61 78.4436 618.436 78.8339 616.424 78.4855C614.29 78.1162 612.038 76.8589 609.772 74.8498C605.325 70.9084 601.571 64.7423 599.436 60.076C598.303 53.6488 591.509 42.1366 573.557 38.8388C571.275 38.4195 570.645 37.7248 570.451 37.4045C570.222 37.0258 570.052 36.2748 570.388 34.72C570.72 33.1895 571.42 31.4112 572.285 29.321C572.366 29.1261 572.448 28.9285 572.531 28.7285C573.297 26.8851 574.147 24.8403 574.726 22.8603C575.362 20.6843 575.796 18.2014 575.237 15.8082C574.634 13.2329 572.975 11.1375 570.216 9.71972C567.59 8.36999 563.987 7.63379 559.286 7.43895C554.545 7.24246 548.458 7.5897 540.706 8.58665C532.994 9.57841 527.122 10.5706 522.697 11.567C518.315 12.5539 515.186 13.5802 513.068 14.7088C511.03 15.7947 509.216 17.3692 508.988 19.737C508.777 21.9178 510.074 23.6271 510.884 24.5679C511.349 25.1071 511.859 25.6183 512.3 26.054C512.365 26.1191 512.429 26.1824 512.492 26.2442C512.874 26.622 513.197 26.9408 513.488 27.2556C513.565 27.3396 513.634 27.4172 513.696 27.4888C513.609 27.5334 513.509 27.5814 513.397 27.6326C512.065 28.2396 509.651 28.9308 505.548 29.6327C497.166 31.0669 491.482 32.0188 487.174 32.2877C482.944 32.5517 480.357 32.1299 478.088 31.0277C475.712 29.8735 473.4 27.844 469.952 24.2442C468.772 23.0128 467.445 21.5829 465.947 19.9676C463.226 17.035 459.938 13.491 455.931 9.41233C452.739 6.16398 450.037 3.85481 447.676 2.34469C445.324 0.839995 443.102 -0.00521348 440.929 2.41988e-05C438.668 0.00547353 436.893 0.927486 435.486 2.09188C434.207 3.15008 433.094 4.53142 432.139 5.71652L432.038 5.84087C429.936 8.44877 428.096 10.6279 425.12 11.5993ZM514.307 27.0971C514.305 27.0968 514.292 27.1085 514.273 27.1331C514.3 27.1097 514.309 27.0974 514.307 27.0971ZM444.613 7.10346C446.466 8.28865 448.829 10.2646 451.879 13.3686C455.865 17.4256 458.979 20.7844 461.641 23.6562C463.166 25.3003 464.542 26.7848 465.849 28.1493C469.313 31.7644 472.23 34.4717 475.603 36.1104C479.083 37.801 482.765 38.2281 487.528 37.9308C492.212 37.6384 498.246 36.6189 506.508 35.2054C510.727 34.4835 513.734 33.6961 515.755 32.7749C517.634 31.9188 519.673 30.4623 519.758 27.9346C519.796 26.8092 519.402 25.8656 519.008 25.1889C518.614 24.5106 518.11 23.913 517.663 23.4283C517.275 23.0082 516.846 22.5848 516.471 22.2142C516.411 22.1553 516.353 22.0978 516.296 22.0418C515.855 21.6053 515.49 21.2352 515.188 20.8846C514.976 20.6385 514.843 20.4556 514.761 20.3285C514.93 20.1837 515.229 19.9687 515.742 19.6954C517.182 18.9278 519.72 18.0341 523.947 17.0821C528.133 16.1395 533.813 15.174 541.432 14.1943C549.009 13.2198 554.749 12.9099 559.05 13.0882C563.392 13.2681 566.048 13.9386 567.617 14.7452C569.054 15.4836 569.526 16.294 569.712 17.0917C569.942 18.0715 569.821 19.4288 569.28 21.2778C568.793 22.9433 568.066 24.696 567.277 26.5961C567.199 26.784 567.121 26.9734 567.042 27.1642C566.205 29.1863 565.3 31.4227 564.844 33.5271C564.393 35.607 564.254 38.1109 565.594 40.325C566.969 42.5973 569.446 43.8329 572.529 44.3993C588.519 47.3368 593.333 57.4039 593.888 61.2937L593.944 61.6857L594.106 62.0473C596.381 67.1291 600.613 74.2978 606.002 79.0751C608.707 81.4724 611.897 83.4407 615.453 84.0562C619.129 84.6926 622.89 83.827 626.455 81.1001C637.434 72.703 650.175 73.8635 654.95 75.4122L655.475 75.5825L656.025 75.544C658.92 75.3421 662.211 75.5355 665.197 76.3402C668.198 77.1487 670.67 78.511 672.254 80.475C675.179 84.1026 676.274 91.6211 666.58 106.683C660.468 116.181 655.457 123.283 651.113 128.38C646.742 133.508 643.233 136.379 640.181 137.71C637.302 138.966 634.655 138.929 631.636 137.739C628.455 136.486 624.896 133.961 620.441 130.158C611.213 122.279 599.572 116.987 589.45 119.251C578.81 121.631 571.563 131.828 570.214 150.945C569.618 159.393 565.794 165.265 560.428 169.144C554.978 173.083 547.799 175.053 540.549 175.26C533.292 175.467 526.261 173.899 521.203 171.097C516.122 168.282 513.519 164.558 513.68 160.453C514.168 148.003 506.386 137.373 496.822 131.881C487.291 126.409 474.968 125.558 466.728 134.314C463.844 137.378 458.657 139.606 452.13 140.643C445.685 141.668 438.342 141.463 431.602 140.052C424.821 138.633 418.936 136.054 415.166 132.572C411.525 129.21 409.849 125.045 411.109 119.823C414.245 106.829 413.858 96.2177 409.441 88.5642C404.927 80.743 396.645 76.7311 385.756 76.0359C376.28 75.4309 366.105 69.9215 360.645 62.5556C357.946 58.9159 356.511 54.9801 356.687 51.0761C356.861 47.2184 358.624 43.0276 363.008 38.8417C368.084 33.9962 371.517 28.913 374.304 24.3907C374.965 23.3181 375.579 22.2976 376.162 21.3286C378.111 18.088 379.714 15.4234 381.575 13.3102C383.814 10.7673 386.206 9.30724 389.77 9.12794C393.567 8.93686 398.974 10.1854 407.162 13.9568C415.806 17.9384 422.043 18.5528 426.885 16.9728C431.578 15.441 434.35 12.0014 436.345 9.52524L436.46 9.38295C437.536 8.04837 438.313 7.10108 439.109 6.44242C439.821 5.85272 440.363 5.65554 440.942 5.65414C441.609 5.65254 442.751 5.91283 444.613 7.10346ZM514.56 20.5408C514.561 20.5409 514.566 20.5337 514.574 20.5188C514.563 20.5332 514.56 20.5407 514.56 20.5408Z" fill="#313030"/>
<path d="M8.19632 139.733C-11.4265 109.079 8.78033 103.177 21.3366 104.058C26.7387 102.296 40.5214 101.063 52.4353 110.224C64.3492 119.385 76.0878 102.003 80.4679 92.1665C81.198 87.0282 86.9505 75.9589 104.12 72.7878C125.583 68.824 74.7738 34.4708 136.095 42.3984C197.417 50.3261 137.847 57.8133 171.136 63.5389C204.425 69.2644 198.293 67.9431 223.259 42.3984C248.226 16.8537 235.523 57.8133 268.812 42.3984C302.101 26.9835 296.845 49.4453 316.117 67.9431C335.39 86.441 312.175 108.903 291.589 110.224C271.002 111.545 262.68 125.199 268.812 150.743C274.944 176.288 222.383 182.894 208.367 167.92C194.351 152.945 165.442 169.682 166.318 192.143C167.194 214.605 106.749 220.33 104.12 182.894C101.492 145.458 76.5259 148.541 58.5675 163.956C40.609 179.371 32.7249 178.05 8.19632 139.733Z" fill="#007FFF"/>
<path d="M18.9662 137.727C0.720441 109.299 19.5093 103.825 31.1844 104.642C36.2074 103.008 49.0229 101.865 60.1007 110.361C71.1786 118.857 82.0935 102.736 86.1662 93.6137C86.845 88.8483 92.1938 78.5824 108.159 75.6415C128.115 71.9654 80.8716 40.1055 137.89 47.4578C194.908 54.8101 139.519 61.7539 170.472 67.0638C201.424 72.3738 195.722 71.1485 218.937 47.4578C242.151 23.7672 230.341 61.7539 261.293 47.4578C292.246 33.1617 287.359 53.9932 305.279 71.1484C323.199 88.3037 301.613 109.135 282.471 110.361C263.33 111.586 255.591 124.248 261.293 147.939C266.995 171.629 218.122 177.756 205.09 163.869C192.057 149.981 165.177 165.503 165.992 186.334C166.806 207.165 110.603 212.475 108.159 177.756C105.715 143.037 82.5007 145.897 65.8026 160.193C49.1044 174.489 41.7735 173.263 18.9662 137.727Z" fill="#A8D7FF"/>
<path fill-rule="evenodd" clip-rule="evenodd" d="M254.88 32.661C257.8 33.6188 262.458 33.5758 270.459 29.8711C278.915 25.9551 285.335 24.2374 290.516 24.4995C295.932 24.7734 299.672 27.1869 302.689 30.6313C304.922 33.1807 306.882 36.4627 308.884 39.8148C309.427 40.7242 309.974 41.6388 310.529 42.5454C313.218 46.9314 316.354 51.5656 320.915 55.9433C326.167 60.984 328.729 66.5154 328.98 72.0925C329.228 77.6231 327.187 82.8328 323.917 87.2665C317.442 96.0471 305.716 102.4 294.606 103.113C284.909 103.735 278.736 107.189 275.475 112.87C272.118 118.719 271.41 127.65 274.406 140.131C276.212 147.653 273.617 153.872 268.689 158.447C263.891 162.902 256.909 165.814 249.564 167.36C242.179 168.915 234.137 169.149 226.976 168.005C219.898 166.873 213.259 164.323 209.134 159.917C203.357 153.745 194.218 153.77 186.01 158.508C177.835 163.227 171.6 172.14 171.988 182.085C172.265 189.189 167.641 194.584 161.553 197.975C155.441 201.379 147.361 203.106 139.288 202.874C131.207 202.642 122.837 200.438 116.242 195.645C109.562 190.791 104.845 183.371 104.127 173.146C102.849 154.929 96.2976 148.003 89.3081 146.432C81.8004 144.744 71.9789 148.673 63.2486 156.167C58.724 160.051 54.5634 163.128 50.4489 164.758C46.1723 166.453 41.9477 166.581 37.5449 164.65C33.3144 162.795 29.131 159.13 24.5641 153.743C19.9701 148.324 14.7969 140.93 8.64528 131.32C-1.28433 115.808 -2.08683 105.089 3.32485 98.342C5.90958 95.1194 9.61661 93.2629 13.3229 92.2589C16.8476 91.3042 20.5723 91.0628 23.8319 91.2418C30.1685 89.3766 44.5151 88.4234 56.998 98.0218C59.3896 99.8609 61.5638 100.253 63.5765 99.9029C65.7097 99.5317 67.9616 98.2678 70.2283 96.2479C74.6749 92.2856 78.4295 86.0867 80.5635 81.3956C81.6971 74.9342 88.4914 63.3607 106.443 60.0454C108.725 59.6239 109.355 58.9255 109.549 58.6034C109.778 58.2228 109.948 57.4678 109.612 55.9047C109.28 54.366 108.58 52.5783 107.715 50.477C107.634 50.281 107.552 50.0824 107.469 49.8813C106.703 48.0281 105.853 45.9725 105.274 43.9819C104.638 41.7943 104.204 39.2982 104.763 36.8923C105.366 34.3033 107.025 32.1967 109.784 30.7714C112.41 29.4145 116.013 28.6744 120.714 28.4785C125.455 28.281 131.542 28.6301 139.294 29.6323C147.006 30.6294 152.878 31.6269 157.303 32.6285C161.685 33.6207 164.814 34.6525 166.932 35.7871C168.97 36.8787 170.784 38.4616 171.012 40.842C171.223 43.0343 169.926 44.7528 169.116 45.6985C168.651 46.2407 168.141 46.7545 167.7 47.1926C167.635 47.258 167.571 47.3217 167.508 47.3838C167.126 47.7636 166.803 48.0841 166.512 48.4006C166.435 48.485 166.366 48.563 166.304 48.635C166.391 48.6799 166.491 48.7281 166.603 48.7796C167.935 49.3898 170.349 50.0847 174.452 50.7903C182.834 52.2321 188.518 53.1891 192.826 53.4594C197.056 53.7248 199.643 53.3009 201.912 52.1928C204.288 51.0324 206.6 48.9921 210.048 45.3732C211.228 44.1352 212.555 42.6977 214.053 41.0738C216.774 38.1256 220.062 34.5627 224.069 30.4624C227.261 27.1968 229.963 24.8753 232.324 23.3572C234.676 21.8445 236.898 20.9948 239.071 21C241.332 21.0055 243.107 21.9324 244.514 23.103C245.793 24.1668 246.906 25.5555 247.861 26.7469L247.962 26.8719C250.064 29.4937 251.904 31.6844 254.88 32.661ZM165.693 48.2412C165.695 48.2409 165.708 48.2527 165.727 48.2774C165.7 48.2539 165.691 48.2415 165.693 48.2412ZM235.387 28.1412C233.534 29.3327 231.171 31.3192 228.121 34.4397C224.135 38.5182 221.021 41.895 218.359 44.782C216.834 46.4349 215.458 47.9273 214.151 49.299C210.687 52.9334 207.77 55.6551 204.397 57.3025C200.917 59.0021 197.235 59.4314 192.472 59.1325C187.788 58.8386 181.754 57.8136 173.492 56.3926C169.273 55.6669 166.266 54.8754 164.245 53.9492C162.366 53.0886 160.327 51.6243 160.242 49.0832C160.204 47.9518 160.598 47.0032 160.992 46.3228C161.386 45.641 161.89 45.0402 162.337 44.5529C162.725 44.1306 163.154 43.705 163.529 43.3324C163.589 43.2732 163.647 43.2153 163.704 43.159C164.145 42.7203 164.51 42.3481 164.812 41.9956C165.024 41.7483 165.157 41.5644 165.239 41.4367C165.07 41.2911 164.771 41.0749 164.258 40.8001C162.818 40.0285 160.28 39.13 156.053 38.173C151.867 37.2253 146.187 36.2547 138.568 35.2698C130.991 34.2901 125.251 33.9786 120.95 34.1578C116.608 34.3387 113.952 35.0128 112.383 35.8236C110.946 36.566 110.474 37.3807 110.288 38.1827C110.058 39.1676 110.179 40.5322 110.72 42.391C111.207 44.0653 111.934 45.8274 112.723 47.7376C112.801 47.9265 112.879 48.1168 112.958 48.3087C113.795 50.3415 114.7 52.5898 115.156 54.7054C115.607 56.7964 115.746 59.3137 114.406 61.5395C113.031 63.8238 110.554 65.066 107.471 65.6355C91.4807 68.5886 86.6675 78.7092 86.1119 82.6198L86.0559 83.0138L85.8941 83.3774C83.6191 88.4862 79.3872 95.693 73.9976 100.496C71.2929 102.906 68.1025 104.885 64.5471 105.503C60.8711 106.143 57.1102 105.273 53.5449 102.531C42.5663 94.0897 29.8246 95.2564 25.0504 96.8133L24.5254 96.9845L23.9747 96.9459C21.0805 96.7428 17.7894 96.9373 14.803 97.7462C11.8023 98.559 9.32969 99.9286 7.74603 101.903C4.82092 105.55 3.72641 113.108 13.4196 128.251C19.5323 137.799 24.5428 144.939 28.8869 150.063C33.2582 155.219 36.7673 158.105 39.8188 159.443C42.6979 160.705 45.3446 160.668 48.3635 159.472C51.5447 158.212 55.104 155.674 59.5586 151.85C68.7867 143.929 80.4276 138.61 90.5499 140.885C101.19 143.278 108.437 153.529 109.786 172.747C110.382 181.241 114.206 187.144 119.572 191.043C125.022 195.004 132.201 196.984 139.451 197.192C146.708 197.401 153.739 195.824 158.797 193.007C163.878 190.177 166.481 186.433 166.32 182.307C165.832 169.79 173.614 159.104 183.178 153.583C192.709 148.081 205.032 147.225 213.272 156.028C216.156 159.109 221.343 161.348 227.87 162.392C234.315 163.422 241.658 163.216 248.398 161.797C255.179 160.37 261.064 157.778 264.834 154.277C268.475 150.897 270.151 146.711 268.891 141.461C265.755 128.397 266.142 117.729 270.559 110.035C275.073 102.172 283.355 98.1392 294.244 97.4404C303.72 96.8322 313.895 91.2934 319.355 83.8883C322.054 80.2293 323.489 76.2726 323.313 72.3478C323.139 68.4695 321.376 64.2565 316.992 60.0483C311.916 55.177 308.483 50.0668 305.696 45.5204C305.035 44.4421 304.421 43.4162 303.838 42.442C301.889 39.1842 300.286 36.5054 298.425 34.381C296.186 31.8245 293.794 30.3567 290.23 30.1765C286.433 29.9844 281.026 31.2396 272.838 35.031C264.194 39.0338 257.957 39.6515 253.115 38.063C248.422 36.5231 245.65 33.0652 243.655 30.5759L243.54 30.4329C242.464 29.0912 241.687 28.1389 240.891 27.4767C240.179 26.8839 239.637 26.6856 239.058 26.6842C238.391 26.6826 237.249 26.9443 235.387 28.1412ZM165.44 41.65C165.439 41.6501 165.434 41.6429 165.426 41.6279C165.437 41.6425 165.44 41.6499 165.44 41.65Z" fill="#313030"/>
</svg>
