<svg width="428" height="198" viewBox="0 0 428 198" fill="none" xmlns="http://www.w3.org/2000/svg">
<path d="M104.741 100.113C104.741 99.3797 105.212 96.1413 104.741 95.6997C104.484 95.4582 100.132 95.4588 99.8697 95.6997C99.4371 96.0966 99.7335 100.265 100.231 100.265C101.661 100.264 103.577 100.338 104.741 100.113" fill="#FF0000"/>
<path d="M66.985 117.305C67.0361 115.834 67.0871 114.364 67.1379 112.892C63.418 112.892 62.2661 111.825 62.2661 115.752C62.2661 118.412 65.2807 117.305 66.985 117.305" fill="#FF0000"/>
<path d="M117.528 46.7105C121.109 46.6518 121.093 41.2165 117.528 41.2329C113.989 41.2492 113.968 46.6158 117.528 46.7105Z" fill="#FF0000"/>
<path d="M88.9073 84.4412C87.8418 83.3761 86.7764 82.311 85.711 81.2459C82.3019 84.8085 82.0095 84.3942 85.5578 87.9407L88.9073 84.4412" fill="#FF0000"/>
<path d="M44.9092 75.3146C43.8942 74.2495 42.8792 73.184 41.8642 72.1189C38.3355 75.6465 37.9691 75.2252 41.5611 78.8141C42.6773 77.6479 43.7931 76.4811 44.9092 75.3146" fill="#FF0000"/>
<path d="M46.1275 23.8873C49.4192 23.8723 49.8584 18.904 46.5841 18.41C42.8926 17.8529 42.3042 23.6218 46.1275 23.8873Z" fill="#FF0000"/>
<path d="M39.2784 15.9752C42.8111 15.8752 42.8431 10.3008 39.2784 10.3462C35.6997 10.3919 35.9056 15.627 39.2784 15.9752Z" fill="#FFAAAA"/>
<path d="M60.6199 107.871C59.6049 106.807 58.5899 105.742 57.5749 104.677C56.4077 105.843 55.2408 107.01 54.074 108.176C57.3857 111.328 57.893 111.442 60.6199 107.871" fill="#FF0000"/>
<path d="M112.655 35.1455C112.706 33.6747 112.757 32.204 112.808 30.7333C109.089 30.7333 107.936 29.6658 107.936 33.5923C107.936 36.2523 110.952 35.1455 112.655 35.1455" fill="#FF0000"/>
<path d="M71.2473 137.997C74.5387 137.982 74.9779 133.013 71.7036 132.519C68.0121 131.962 67.4236 137.731 71.2473 137.997Z" fill="#FF0000"/>
<path d="M35.0128 135.565C35.0639 134.094 35.115 132.624 35.166 131.153C31.4461 131.153 30.2939 130.086 30.2939 134.012C30.2943 136.672 33.3103 135.565 35.0128 135.565" fill="#FF0000"/>
<path d="M48.7176 29.1828C45.2617 25.7286 45.6462 26.1653 42.1716 29.4874C43.2374 30.5525 44.3034 31.6176 45.3695 32.6827C46.4853 31.5158 47.6015 30.3493 48.7176 29.1828Z" fill="#FF0000"/>
<path d="M103.827 98.1344C103.827 97.3866 104.309 94.0128 103.827 93.5698C103.563 93.327 99.2188 93.327 98.9544 93.5698C98.7522 93.7559 98.7522 97.9483 98.9544 98.1344C99.5469 98.6785 102.944 98.1344 103.827 98.1344Z" fill="#FFAAAA"/>
<path d="M66.0705 115.177C66.1209 113.706 66.1716 112.235 66.2223 110.764C62.5028 110.764 61.3519 109.697 61.3519 113.623C61.3516 116.283 64.3609 115.177 66.0705 115.177Z" fill="#FFAAAA"/>
<path d="M116.767 44.4255C120.582 44.2584 120.212 38.3935 116.463 38.9482C112.868 39.4799 114.13 44.5419 116.767 44.4255Z" fill="#FFAAAA"/>
<path d="M89.211 82.0061C85.7551 78.5523 86.1396 78.9889 82.665 82.3107C83.7304 83.3758 84.7958 84.4412 85.8612 85.5063C86.904 84.4639 88.6099 82.8274 89.211 82.0061" fill="#FFAAAA"/>
<path d="M45.3665 72.7427C41.8158 69.5554 42.2267 69.8176 38.8192 73.0301C39.8853 74.0346 40.9514 75.0397 42.0174 76.0443C43.1336 74.9437 44.2504 73.8432 45.3665 72.7427" fill="#FFAAAA"/>
<path d="M51.3043 62.0783C52.2539 55.1823 51.355 49.8571 57.6987 45.4179C59.8278 43.9278 62.1589 42.5972 64.7774 42.2233C68.9285 41.6302 68.5066 41.9717 68.5066 37.278C54.2782 38.3695 47.9829 49.5042 51.3043 62.0783" fill="#FFAAAA"/>
<path d="M56.3276 70.9014C58.6484 65.1522 76.5022 65.4178 76.2716 72.4232C81.3019 69.961 75.067 64.9601 71.9526 64.2412C64.9604 62.6264 59.2231 64.2429 56.3276 70.9014" fill="#FFAAAA"/>
<path d="M76.2739 75.0077C71.3057 83.9625 52.7782 78.4822 54.5042 67.7044C57.5268 77.0041 72.9518 77.8928 78.2525 70.4431C77.6771 71.815 76.7178 74.1594 76.2739 75.0077" fill="#FF0000"/>
<path d="M54.1981 64.5101C54.092 58.1705 70.9265 52.47 73.3798 58.881C77.2989 54.7991 69.4439 52.6058 66.4723 52.8346C59.0512 53.4057 54.884 57.51 54.1981 64.5101Z" fill="#FFAAAA"/>
<path d="M74.2946 61.4679C73.9185 65.8364 68.0885 67.9532 64.6466 69.1825C58.8142 71.2653 52.8938 68.107 51.3057 62.2284C57.1971 68.5006 73.2416 66.1196 74.4462 56.4469C74.4462 58.0491 74.5433 60.1362 74.2946 61.4679" fill="#FF0000"/>
<path d="M90.279 100.873C86.7043 92.7942 79.415 93.3166 72.1625 91.135C63.9223 88.6566 58.4774 82.8744 55.7211 74.7035C54.9781 83.8681 61.8849 92.4797 70.1665 95.2383C77.9718 97.8379 89.3792 97.8713 90.2793 108.784C90.279 106.148 90.279 103.51 90.279 100.873" fill="#FF0000"/>
<path d="M109.184 135.715C112.71 135.623 112.761 130.236 109.184 130.238C105.609 130.239 105.66 135.621 109.184 135.715Z" fill="#FFAAAA"/>
<path d="M45.3664 21.6053C49.2776 21.5226 48.8697 15.5349 45.0617 16.1277C41.4743 16.6861 42.7246 21.68 45.3664 21.6053Z" fill="#FFAAAA"/>
<path d="M38.5174 13.5408C42.1649 13.728 42.1893 8.0852 38.6693 8.06418C34.7458 8.04083 35.7011 14.1006 38.5174 13.5408Z" fill="#FF0000"/>
<path d="M60.7434 105.44C59.678 104.375 58.6126 103.31 57.5469 102.245C54.1374 105.806 53.8456 105.392 57.3936 108.939C58.5105 107.772 59.6269 106.606 60.7434 105.44" fill="#FFAAAA"/>
<path d="M111.744 33.0163C111.794 31.5455 111.845 30.0748 111.896 28.6041C108.176 28.6041 107.025 27.5373 107.025 31.4631C107.025 34.1224 110.034 33.0163 111.744 33.0163" fill="#FFAAAA"/>
<path d="M8.83099 22.0613C5.28031 18.6829 5.69085 18.9604 2.28369 22.3659C5.59472 25.6743 5.81301 25.9375 8.83099 22.0613Z" fill="#FF0000"/>
<path d="M104.131 12.3239C100.581 8.94483 100.992 9.2237 97.5847 12.6285C100.895 15.9369 101.112 16.1991 104.131 12.3239Z" fill="#FF0000"/>
<path d="M17.6606 90.3755C18.5121 84.1196 17.404 77.8951 23.5748 73.9719C25.7917 72.5626 28.3681 70.5961 31.1334 70.5961C35.3256 70.5961 34.863 69.6575 34.863 65.5755C21.0384 66.7604 13.7491 77.5415 17.6606 90.3755" fill="#FFAAFF"/>
<path d="M22.684 99.1986C24.8385 93.2799 42.9116 94.0085 42.6266 100.72C47.5287 98.2842 41.5615 93.6379 38.669 92.6558C31.6114 90.2597 25.3451 93.0588 22.684 99.1986" fill="#FFB3FF"/>
<path d="M42.6262 103.462C36.8209 111.855 19.3589 107.111 20.8562 96.1587C23.8508 105.293 39.1253 106.181 44.4529 98.8973C43.8441 100.419 43.2353 101.941 42.6262 103.462Z" fill="#FF00FF"/>
<path d="M20.5521 92.8106C20.736 86.6641 37.2575 80.7028 39.7351 87.1818C43.6095 83.246 36.0132 81.0411 33.1891 81.0961C26.501 81.2265 20.2307 85.7131 20.5521 92.8106" fill="#FFB3FF"/>
<path d="M40.647 89.765C39.175 100.451 20.5521 100.363 17.6597 90.5259C24.1008 97.3902 38.1377 94.0455 40.8002 85.0483C40.7948 85.145 40.6837 88.5555 40.647 89.765Z" fill="#FF00FF"/>
<path d="M56.4811 129.324C55.1314 121.528 45.0297 121.253 39.202 119.663C30.4969 117.288 25.1542 111.525 22.0748 103.155C21.5644 112.678 28.7215 121.631 37.6797 124.075C46.1478 126.385 54.4258 126.7 56.6327 137.083C56.6327 134.639 56.9718 131.471 56.4811 129.324" fill="#FF00FF"/>
<path d="M132.294 109.85C133.223 118.815 129.61 128.042 119.203 128.107C119.355 129.476 119.507 130.845 119.659 132.214C130.697 129.751 137.313 121.122 132.294 109.85Z" fill="#FFFFAA"/>
<path d="M127.425 102.701C126.52 108.221 111.221 108.687 110.527 103.005C106.613 105.347 112.058 108.922 114.484 109.547C119.932 110.952 126.469 108.799 127.425 102.701" fill="#FFFFAA"/>
<path d="M110.222 100.57C115.722 93.6702 128.925 95.6203 129.403 105.286C125.582 99.0438 112.704 97.0557 109.156 104.678C109.564 103.351 110.119 101.789 110.222 100.57" fill="#FFFF00"/>
<path d="M129.708 108.025C130.851 113.621 116.948 119.026 113.875 114.263C111.565 117.498 116.554 119.32 119.204 119.056C125.082 118.469 130.847 114.536 129.708 108.025Z" fill="#FFFFAA"/>
<path d="M112.809 112.135C114.527 103.649 129.512 100.776 132.446 109.852C126.758 105.047 113.912 108.04 113.265 116.394C113.168 115.026 113.084 113.241 112.809 112.135" fill="#FFFF00"/>
<path d="M96.5206 79.7244C99.7088 85.3942 104.529 85.59 110.222 86.4193C118.585 87.6378 124.264 91.6404 127.729 99.5034C127.349 91.0276 120.953 84.68 113.038 82.9194C106.195 81.3973 97.9368 82.0608 96.064 73.1824C96.2549 75.2385 96.7532 77.9415 96.5206 79.7244" fill="#FFFF00"/>
<path d="M107.632 45.7965C107.706 51.0203 108.63 55.6016 104.525 59.7036C101.845 62.3822 98.3072 63.992 94.5396 64.0541C94.6414 65.4234 94.7428 66.7927 94.8446 68.1624C105.813 65.6642 112.73 57.2315 107.632 45.7965" fill="#AAD4FF"/>
<path d="M102.762 38.6447C101.853 44.2144 86.5617 44.647 85.8641 38.9492C81.8519 41.2632 87.1258 44.8165 89.6702 45.4913C95.0846 46.9267 101.812 44.7427 102.762 38.6447Z" fill="#AAD4FF"/>
<path d="M85.5594 36.5164C90.4362 29.8039 105.535 31.4378 104.589 41.3856C101.572 33.3898 88.3801 34.4419 84.3418 40.6251C84.761 39.2621 85.2056 37.8874 85.5594 36.5164Z" fill="#007FFF"/>
<path d="M104.892 43.9719C106.422 49.6093 92.2316 54.9528 89.2116 50.21C86.3659 53.7516 92.5664 55.1706 95.1478 54.9268C100.169 54.4528 107.059 49.7921 104.892 43.9719Z" fill="#AAD4FF"/>
<path d="M88.1462 48.0782C90.0915 39.8595 104.887 36.4274 107.633 45.7962C102.052 39.9489 89.6292 44.7484 88.451 52.3379C88.4019 50.9749 88.3805 49.1773 88.1462 48.0782" fill="#007FFF"/>
<path d="M71.8547 15.6713C74.5876 21.3731 80.0208 21.5803 85.4046 22.3655C93.7743 23.5864 99.5375 27.5723 103.064 35.4507C102.661 26.5179 95.7639 20.4281 87.5354 18.7145C80.7304 17.2972 73.3944 17.6705 71.3984 9.1286C71.5506 11.3095 71.7025 13.4904 71.8547 15.6713" fill="#007FFF"/>
<path d="M36.2345 36.6666C37.17 45.6611 33.5429 54.8584 23.1409 54.9241C23.2931 56.2935 23.4453 57.6628 23.5975 59.0324C34.614 56.5673 41.2825 47.9938 36.2345 36.6666" fill="#FFFFAA"/>
<path d="M31.3617 29.5164C30.4438 35.1004 15.166 35.5151 14.4624 29.8209C10.4351 32.1883 15.9174 35.7175 18.4213 36.363C23.8425 37.7604 30.4125 35.5935 31.3617 29.5164" fill="#FFFFAA"/>
<path d="M14.1593 27.3865C19.3532 20.8695 33.9184 22.108 33.1891 32.2554C30.355 24.767 16.4951 24.7503 13.0933 31.4945C13.5018 30.1675 14.0569 28.6054 14.1593 27.3865" fill="#FFFF00"/>
<path d="M33.6443 34.8419C34.9126 40.5267 20.9616 45.7652 17.8111 41.0801C15.201 44.6951 21.2366 46.0344 23.7489 45.7969C29.5035 45.2528 34.6797 40.9343 33.6443 34.8419" fill="#FFFFAA"/>
<path d="M16.7461 38.9482C18.8459 30.0865 32.7485 28.1407 36.3853 36.6659C30.7619 31.9161 17.6456 34.8723 17.204 43.208C17.1062 41.8406 17.0228 40.052 16.7461 38.9482Z" fill="#FFFF00"/>
<path d="M0.457937 6.54274C3.64147 12.2132 8.46983 12.408 14.1593 13.2369C22.7009 14.4815 27.9135 18.5344 31.6667 26.3217C31.2766 17.8646 24.8801 11.4893 16.9754 9.73739C10.1284 8.22062 1.87714 8.87343 0 0C0.191586 2.05616 0.690243 4.75978 0.457937 6.54274" fill="#FFFF00"/>
<path d="M70.4862 135.715C74.3974 135.632 73.9898 129.645 70.1815 130.238C66.5937 130.796 67.844 135.789 70.4862 135.715Z" fill="#FFAAAA"/>
<path d="M34.1016 133.433C34.152 131.963 34.2027 130.492 34.2535 129.021C30.5342 129.021 29.3831 127.954 29.3831 131.88C29.3831 134.54 32.3924 133.433 34.1016 133.433" fill="#FFAAAA"/>
<path d="M323.259 100.113C323.259 99.3797 322.788 96.1413 323.259 95.6997C323.516 95.4582 327.868 95.4588 328.13 95.6997C328.563 96.0966 328.266 100.265 327.769 100.265C326.339 100.264 324.423 100.338 323.259 100.113" fill="#FF0000"/>
<path d="M361.015 117.305C360.964 115.834 360.913 114.364 360.862 112.892C364.582 112.892 365.734 111.825 365.734 115.752C365.734 118.412 362.719 117.305 361.015 117.305" fill="#FF0000"/>
<path d="M310.472 46.7105C306.891 46.6518 306.907 41.2165 310.472 41.2329C314.011 41.2492 314.032 46.6158 310.472 46.7105Z" fill="#FF0000"/>
<path d="M339.093 84.4412C340.158 83.3761 341.224 82.311 342.289 81.2459C345.698 84.8085 345.991 84.3942 342.442 87.9407L339.093 84.4412" fill="#FF0000"/>
<path d="M383.091 75.3146C384.106 74.2495 385.121 73.184 386.136 72.1189C389.664 75.6465 390.031 75.2252 386.439 78.8141C385.323 77.6479 384.207 76.4811 383.091 75.3146" fill="#FF0000"/>
<path d="M318.542 137.997C314.685 137.883 315.128 132.005 318.847 132.519C322.418 133.013 321.208 138.121 318.542 137.997Z" fill="#FF0000"/>
<path d="M381.872 23.8873C378.581 23.8723 378.142 18.904 381.416 18.41C385.107 17.8529 385.696 23.6218 381.872 23.8873Z" fill="#FF0000"/>
<path d="M388.722 15.9752C385.189 15.8752 385.157 10.3008 388.722 10.3462C392.3 10.3919 392.094 15.627 388.722 15.9752Z" fill="#FFAAAA"/>
<path d="M367.38 107.871C368.395 106.807 369.41 105.742 370.425 104.677C371.592 105.843 372.759 107.01 373.926 108.176C370.614 111.328 370.107 111.442 367.38 107.871" fill="#FF0000"/>
<path d="M315.345 35.1455C315.294 33.6747 315.243 32.204 315.192 30.7333C318.911 30.7333 320.064 29.6658 320.064 33.5923C320.064 36.2523 317.048 35.1455 315.345 35.1455" fill="#FF0000"/>
<path d="M356.753 137.997C353.461 137.982 353.022 133.013 356.296 132.519C359.988 131.962 360.576 137.731 356.753 137.997Z" fill="#FF0000"/>
<path d="M392.987 135.565C392.936 134.094 392.885 132.624 392.834 131.153C396.554 131.153 397.706 130.086 397.706 134.012C397.706 136.672 394.69 135.565 392.987 135.565" fill="#FF0000"/>
<path d="M379.282 29.1828C382.738 25.7286 382.354 26.1653 385.828 29.4874C384.763 30.5525 383.697 31.6176 382.63 32.6827C381.515 31.5158 380.399 30.3493 379.282 29.1828Z" fill="#FF0000"/>
<path d="M324.173 98.1344C324.173 97.3866 323.691 94.0128 324.173 93.5698C324.437 93.327 328.781 93.327 329.046 93.5698C329.248 93.7559 329.248 97.9483 329.046 98.1344C328.453 98.6785 325.056 98.1344 324.173 98.1344Z" fill="#FFAAAA"/>
<path d="M361.93 115.177C361.879 113.706 361.828 112.235 361.778 110.764C365.497 110.764 366.648 109.697 366.648 113.623C366.648 116.283 363.639 115.177 361.93 115.177Z" fill="#FFAAAA"/>
<path d="M311.233 44.4255C307.418 44.2584 307.788 38.3935 311.537 38.9482C315.132 39.4799 313.87 44.5419 311.233 44.4255Z" fill="#FFAAAA"/>
<path d="M338.789 82.0061C342.245 78.5523 341.86 78.9889 345.335 82.3107C344.27 83.3758 343.204 84.4412 342.139 85.5063C341.096 84.4639 339.39 82.8274 338.789 82.0061" fill="#FFAAAA"/>
<path d="M382.633 72.7427C386.184 69.5554 385.773 69.8176 389.181 73.0301C388.115 74.0346 387.049 75.0397 385.983 76.0443C384.866 74.9437 383.75 73.8432 382.633 72.7427" fill="#FFAAAA"/>
<path d="M376.696 62.0783C375.746 55.1823 376.645 49.8571 370.301 45.4179C368.172 43.9278 365.841 42.5972 363.223 42.2233C359.071 41.6302 359.493 41.9717 359.493 37.278C373.722 38.3695 380.017 49.5042 376.696 62.0783" fill="#FFAAAA"/>
<path d="M371.672 70.9014C369.352 65.1522 351.498 65.4178 351.728 72.4232C346.698 69.961 352.933 64.9601 356.047 64.2412C363.04 62.6264 368.777 64.2429 371.672 70.9014" fill="#FFAAAA"/>
<path d="M351.726 75.0077C356.694 83.9625 375.222 78.4822 373.496 67.7044C370.473 77.0041 355.048 77.8928 349.748 70.4431C350.323 71.815 351.282 74.1594 351.726 75.0077" fill="#FF0000"/>
<path d="M373.802 64.5101C373.908 58.1705 357.073 52.47 354.62 58.881C350.701 54.7991 358.556 52.6058 361.528 52.8346C368.949 53.4057 373.116 57.51 373.802 64.5101Z" fill="#FFAAAA"/>
<path d="M353.705 61.4679C354.082 65.8364 359.912 67.9532 363.353 69.1825C369.186 71.2653 375.106 68.107 376.694 62.2284C370.803 68.5006 354.758 66.1196 353.554 56.4469C353.554 58.0491 353.457 60.1362 353.705 61.4679" fill="#FF0000"/>
<path d="M337.721 100.873C341.296 92.7942 348.585 93.3166 355.838 91.135C364.078 88.6566 369.523 82.8744 372.279 74.7035C373.022 83.8681 366.115 92.4797 357.833 95.2383C350.028 97.8379 338.621 97.8713 337.721 108.784C337.721 106.148 337.721 103.51 337.721 100.873" fill="#FF0000"/>
<path d="M318.816 135.715C315.29 135.623 315.239 130.236 318.816 130.238C322.391 130.239 322.34 135.621 318.816 135.715Z" fill="#FFAAAA"/>
<path d="M382.634 21.6053C378.722 21.5226 379.13 15.5349 382.938 16.1277C386.526 16.6861 385.275 21.68 382.634 21.6053Z" fill="#FFAAAA"/>
<path d="M389.483 13.5408C385.835 13.728 385.811 8.0852 389.331 8.06418C393.254 8.04083 392.299 14.1006 389.483 13.5408Z" fill="#FF0000"/>
<path d="M367.257 105.44C368.322 104.375 369.387 103.31 370.453 102.245C373.863 105.806 374.154 105.392 370.606 108.939C369.49 107.772 368.373 106.606 367.257 105.44" fill="#FFAAAA"/>
<path d="M316.256 33.0163C316.206 31.5455 316.155 30.0748 316.104 28.6041C319.824 28.6041 320.975 27.5373 320.975 31.4631C320.975 34.1224 317.966 33.0163 316.256 33.0163" fill="#FFAAAA"/>
<path d="M419.169 22.0613C422.72 18.6829 422.309 18.9604 425.716 22.3659C422.405 25.6743 422.187 25.9375 419.169 22.0613Z" fill="#FF0000"/>
<path d="M323.869 12.3239C327.419 8.94483 327.008 9.2237 330.415 12.6285C327.105 15.9369 326.888 16.1991 323.869 12.3239Z" fill="#FF0000"/>
<path d="M410.339 90.3755C409.488 84.1196 410.596 77.8951 404.425 73.9719C402.208 72.5626 399.632 70.5961 396.867 70.5961C392.674 70.5961 393.137 69.6575 393.137 65.5755C406.962 66.7604 414.251 77.5415 410.339 90.3755" fill="#FFAAFF"/>
<path d="M405.316 99.1986C403.162 93.2799 385.088 94.0085 385.373 100.72C380.471 98.2842 386.438 93.6379 389.331 92.6558C396.389 90.2597 402.655 93.0588 405.316 99.1986" fill="#FFB3FF"/>
<path d="M385.374 103.462C391.179 111.855 408.641 107.111 407.144 96.1587C404.149 105.293 388.875 106.181 383.547 98.8973C384.156 100.419 384.765 101.941 385.374 103.462Z" fill="#FF00FF"/>
<path d="M407.448 92.8106C407.264 86.6641 390.743 80.7028 388.265 87.1818C384.39 83.246 391.987 81.0411 394.811 81.0961C401.499 81.2265 407.769 85.7131 407.448 92.8106" fill="#FFB3FF"/>
<path d="M387.353 89.765C388.825 100.451 407.448 100.363 410.34 90.5259C403.899 97.3902 389.862 94.0455 387.2 85.0483C387.205 85.145 387.316 88.5555 387.353 89.765Z" fill="#FF00FF"/>
<path d="M371.519 129.324C372.869 121.528 382.97 121.253 388.798 119.663C397.503 117.288 402.846 111.525 405.925 103.155C406.436 112.678 399.278 121.631 390.32 124.075C381.852 126.385 373.574 126.7 371.367 137.083C371.367 134.639 371.028 131.471 371.519 129.324" fill="#FF00FF"/>
<path d="M295.706 109.85C294.777 118.815 298.39 128.042 308.797 128.107C308.645 129.476 308.493 130.845 308.341 132.214C297.303 129.751 290.687 121.122 295.706 109.85Z" fill="#FFFFAA"/>
<path d="M300.575 102.701C301.48 108.221 316.779 108.687 317.473 103.005C321.387 105.347 315.942 108.922 313.516 109.547C308.068 110.952 301.531 108.799 300.575 102.701" fill="#FFFFAA"/>
<path d="M317.778 100.57C312.278 93.6702 299.075 95.6203 298.597 105.286C302.418 99.0438 315.296 97.0557 318.844 104.678C318.436 103.351 317.881 101.789 317.778 100.57" fill="#FFFF00"/>
<path d="M298.292 108.025C297.149 113.621 311.052 119.026 314.125 114.263C316.435 117.498 311.446 119.32 308.796 119.056C302.918 118.469 297.153 114.536 298.292 108.025Z" fill="#FFFFAA"/>
<path d="M315.191 112.135C313.473 103.649 298.488 100.776 295.554 109.852C301.242 105.047 314.088 108.04 314.735 116.394C314.832 115.026 314.916 113.241 315.191 112.135" fill="#FFFF00"/>
<path d="M331.479 79.7244C328.291 85.3942 323.471 85.59 317.778 86.4193C309.415 87.6378 303.736 91.6404 300.271 99.5034C300.651 91.0276 307.047 84.68 314.962 82.9194C321.805 81.3973 330.063 82.0608 331.936 73.1824C331.745 75.2385 331.247 77.9415 331.479 79.7244" fill="#FFFF00"/>
<path d="M320.368 45.7965C320.294 51.0203 319.37 55.6016 323.475 59.7036C326.155 62.3822 329.693 63.992 333.46 64.0541C333.359 65.4234 333.257 66.7927 333.155 68.1624C322.187 65.6642 315.27 57.2315 320.368 45.7965" fill="#AAD4FF"/>
<path d="M325.238 38.6447C326.147 44.2144 341.438 44.647 342.136 38.9492C346.148 41.2632 340.874 44.8165 338.33 45.4913C332.915 46.9267 326.188 44.7427 325.238 38.6447Z" fill="#AAD4FF"/>
<path d="M342.441 36.5164C337.564 29.8039 322.465 31.4378 323.411 41.3856C326.428 33.3898 339.62 34.4419 343.658 40.6251C343.239 39.2621 342.794 37.8874 342.441 36.5164Z" fill="#007FFF"/>
<path d="M323.108 43.9719C321.578 49.6093 335.768 54.9528 338.788 50.21C341.634 53.7516 335.434 55.1706 332.852 54.9268C327.831 54.4528 320.941 49.7921 323.108 43.9719Z" fill="#AAD4FF"/>
<path d="M339.854 48.0782C337.909 39.8595 323.113 36.4274 320.367 45.7962C325.948 39.9489 338.371 44.7484 339.549 52.3379C339.598 50.9749 339.619 49.1773 339.854 48.0782" fill="#007FFF"/>
<path d="M356.145 15.6713C353.412 21.3731 347.979 21.5803 342.595 22.3655C334.226 23.5864 328.462 27.5723 324.936 35.4507C325.339 26.5179 332.236 20.4281 340.465 18.7145C347.27 17.2972 354.606 17.6705 356.602 9.1286C356.449 11.3095 356.298 13.4904 356.145 15.6713" fill="#007FFF"/>
<path d="M391.766 36.6666C390.83 45.6611 394.457 54.8584 404.859 54.9241C404.707 56.2935 404.555 57.6628 404.403 59.0324C393.386 56.5673 386.718 47.9938 391.766 36.6666" fill="#FFFFAA"/>
<path d="M396.638 29.5164C397.556 35.1004 412.834 35.5151 413.538 29.8209C417.565 32.1883 412.083 35.7175 409.579 36.363C404.158 37.7604 397.588 35.5935 396.638 29.5164" fill="#FFFFAA"/>
<path d="M413.841 27.3865C408.647 20.8695 394.082 22.108 394.811 32.2554C397.645 24.767 411.505 24.7503 414.907 31.4945C414.498 30.1675 413.943 28.6054 413.841 27.3865" fill="#FFFF00"/>
<path d="M394.356 34.8419C393.087 40.5267 407.038 45.7652 410.189 41.0801C412.799 44.6951 406.763 46.0344 404.251 45.7969C398.496 45.2528 393.32 40.9343 394.356 34.8419" fill="#FFFFAA"/>
<path d="M411.254 38.9482C409.154 30.0865 395.251 28.1407 391.615 36.6659C397.238 31.9161 410.354 34.8723 410.796 43.208C410.894 41.8406 410.977 40.052 411.254 38.9482Z" fill="#FFFF00"/>
<path d="M427.542 6.54274C424.359 12.2132 419.53 12.408 413.841 13.2369C405.299 14.4815 400.087 18.5344 396.333 26.3217C396.723 17.8646 403.12 11.4893 411.025 9.73739C417.872 8.22062 426.123 8.87343 428 0C427.808 2.05616 427.31 4.75978 427.542 6.54274" fill="#FFFF00"/>
<path d="M357.514 135.715C353.603 135.632 354.01 129.645 357.819 130.238C361.406 130.796 360.156 135.789 357.514 135.715Z" fill="#FFAAAA"/>
<path d="M393.898 133.433C393.848 131.963 393.797 130.492 393.747 129.021C397.466 129.021 398.617 127.954 398.617 131.88C398.617 134.54 395.608 133.433 393.898 133.433" fill="#FFAAAA"/>
<path d="M268.077 143.64C268.077 142.588 268.751 137.942 268.077 137.308C267.709 136.962 261.472 136.963 261.097 137.308C260.477 137.878 260.902 143.858 261.614 143.858C263.664 143.857 266.409 143.964 268.077 143.64" fill="#FF0000"/>
<path d="M213.978 168.307C214.052 166.197 214.125 164.087 214.197 161.976C208.867 161.976 207.217 160.445 207.217 166.078C207.217 169.895 211.537 168.307 213.978 168.307" fill="#FF0000"/>
<path d="M286.399 67.0194C291.53 66.9352 291.506 59.1368 286.399 59.1602C281.327 59.1837 281.297 66.8835 286.399 67.0194Z" fill="#FF0000"/>
<path d="M245.389 121.155C243.863 119.627 242.336 118.098 240.81 116.57C235.925 121.682 235.506 121.087 240.59 126.176L245.389 121.155" fill="#FF0000"/>
<path d="M182.347 108.06C180.893 106.532 179.439 105.003 177.984 103.475C172.929 108.536 172.403 107.932 177.55 113.081C179.149 111.408 180.748 109.734 182.347 108.06" fill="#FF0000"/>
<path d="M274.835 197.995C280.362 197.832 279.727 189.398 274.398 190.136C269.282 190.845 271.015 198.174 274.835 197.995Z" fill="#FF0000"/>
<path d="M184.093 34.2731C188.81 34.2516 189.439 27.1232 184.747 26.4144C179.458 25.6151 178.615 33.8921 184.093 34.2731Z" fill="#FF0000"/>
<path d="M174.28 22.921C179.341 22.7774 179.387 14.7794 174.28 14.8445C169.152 14.9101 169.447 22.4213 174.28 22.921Z" fill="#FFAAAA"/>
<path d="M204.858 154.772C203.404 153.244 201.95 151.716 200.495 150.189C198.823 151.862 197.151 153.535 195.479 155.209C200.224 159.732 200.951 159.895 204.858 154.772" fill="#FF0000"/>
<path d="M279.416 50.4261C279.49 48.3159 279.563 46.2058 279.636 44.0956C274.306 44.0956 272.655 42.564 272.655 48.1977C272.655 52.0141 276.976 50.4261 279.416 50.4261" fill="#FF0000"/>
<path d="M220.086 197.995C224.802 197.974 225.431 190.845 220.739 190.136C215.45 189.337 214.607 197.614 220.086 197.995Z" fill="#FF0000"/>
<path d="M168.168 194.506C168.241 192.396 168.314 190.286 168.387 188.176C163.057 188.176 161.406 186.645 161.406 192.278C161.407 196.094 165.728 194.506 168.168 194.506" fill="#FF0000"/>
<path d="M187.804 41.871C182.852 36.915 183.403 37.5415 178.425 42.308C179.952 43.8361 181.479 45.3643 183.007 46.8925C184.606 45.2184 186.205 43.5447 187.804 41.871Z" fill="#FF0000"/>
<path d="M266.767 140.802C266.767 139.729 267.457 134.888 266.767 134.252C266.388 133.904 260.164 133.904 259.785 134.252C259.496 134.519 259.496 140.535 259.785 140.802C260.634 141.582 265.501 140.802 266.767 140.802Z" fill="#FFAAAA"/>
<path d="M212.668 165.254C212.74 163.144 212.813 161.033 212.886 158.923C207.556 158.923 205.907 157.392 205.907 163.025C205.907 166.841 210.219 165.254 212.668 165.254Z" fill="#FFAAAA"/>
<path d="M285.308 63.741C290.775 63.5012 290.245 55.0863 284.872 55.8822C279.721 56.6451 281.529 63.908 285.308 63.741Z" fill="#FFAAAA"/>
<path d="M245.825 117.661C240.873 112.705 241.424 113.332 236.445 118.098C237.972 119.626 239.498 121.155 241.025 122.683C242.519 121.187 244.963 118.839 245.825 117.661" fill="#FFAAAA"/>
<path d="M183.003 104.37C177.915 99.7969 178.504 100.173 173.621 104.782C175.149 106.224 176.676 107.666 178.204 109.107C179.803 107.528 181.403 105.949 183.003 104.37" fill="#FFAAAA"/>
<path d="M191.511 89.0689C192.871 79.1746 191.583 71.5341 200.673 65.1648C203.724 63.0269 207.064 61.1177 210.815 60.5812C216.763 59.7302 216.159 60.2203 216.159 53.4858C195.772 55.0518 186.752 71.0278 191.511 89.0689" fill="#FFAAAA"/>
<path d="M198.708 101.728C202.033 93.4793 227.615 93.8602 227.285 103.911C234.492 100.379 225.559 93.2036 221.096 92.1722C211.078 89.8553 202.857 92.1746 198.708 101.728" fill="#FFAAAA"/>
<path d="M227.288 107.62C220.169 120.468 193.623 112.605 196.096 97.1411C200.427 110.484 222.528 111.759 230.123 101.07C229.299 103.039 227.924 106.403 227.288 107.62" fill="#FF0000"/>
<path d="M195.657 92.5579C195.505 83.462 219.626 75.2831 223.141 84.4814C228.757 78.6247 217.502 75.4779 213.244 75.8062C202.611 76.6256 196.64 82.5143 195.657 92.5579Z" fill="#FFAAAA"/>
<path d="M224.452 88.193C223.913 94.4609 215.56 97.4981 210.628 99.2618C202.271 102.25 193.788 97.7187 191.513 89.2842C199.954 98.2835 222.943 94.8672 224.669 80.989C224.669 83.2878 224.808 86.2824 224.452 88.193" fill="#FF0000"/>
<path d="M247.355 144.731C242.233 133.14 231.789 133.889 221.397 130.759C209.59 127.203 201.789 118.907 197.839 107.183C196.775 120.332 206.671 132.688 218.537 136.646C229.721 140.376 246.066 140.424 247.355 156.082C247.355 152.299 247.355 148.515 247.355 144.731" fill="#FF0000"/>
<path d="M274.443 194.722C279.494 194.589 279.568 186.861 274.443 186.863C269.32 186.865 269.394 194.586 274.443 194.722Z" fill="#FFAAAA"/>
<path d="M183.003 30.9989C188.607 30.8802 188.022 22.2892 182.566 23.1397C177.426 23.9409 179.217 31.1061 183.003 30.9989Z" fill="#FFAAAA"/>
<path d="M173.189 19.4281C178.415 19.6966 178.45 11.6005 173.407 11.5703C167.785 11.5368 169.154 20.2312 173.189 19.4281Z" fill="#FF0000"/>
<path d="M205.035 151.283C203.509 149.755 201.982 148.227 200.455 146.699C195.57 151.809 195.152 151.215 200.236 156.303C201.836 154.63 203.436 152.956 205.035 151.283" fill="#FFAAAA"/>
<path d="M278.111 47.3711C278.183 45.261 278.256 43.1508 278.328 41.0406C272.998 41.0406 271.349 39.51 271.349 45.1427C271.349 48.9582 275.661 47.3711 278.111 47.3711" fill="#FFAAAA"/>
<path d="M130.653 31.6532C125.566 26.8059 126.154 27.2041 121.272 32.0902C126.016 36.837 126.329 37.2146 130.653 31.6532Z" fill="#FF0000"/>
<path d="M267.202 17.6822C262.116 12.8339 262.705 13.234 257.823 18.1191C262.566 22.866 262.877 23.2421 267.202 17.6822Z" fill="#FF0000"/>
<path d="M143.305 129.669C144.525 120.693 142.937 111.763 151.779 106.134C154.955 104.112 158.647 101.29 162.609 101.29C168.616 101.29 167.953 99.9433 167.953 94.0866C148.145 95.7866 137.7 111.255 143.305 129.669" fill="#FFAAFF"/>
<path d="M150.502 142.328C153.589 133.836 179.485 134.882 179.077 144.512C186.101 141.016 177.551 134.35 173.406 132.941C163.294 129.503 154.315 133.519 150.502 142.328" fill="#FFB3FF"/>
<path d="M179.076 148.445C170.758 160.487 145.738 153.681 147.883 137.967C152.174 151.072 174.06 152.347 181.694 141.896C180.821 144.079 179.949 146.263 179.076 148.445Z" fill="#FF00FF"/>
<path d="M147.448 133.163C147.711 124.344 171.384 115.791 174.934 125.087C180.485 119.44 169.601 116.276 165.554 116.355C155.971 116.542 146.987 122.98 147.448 133.163" fill="#FFB3FF"/>
<path d="M176.24 128.793C174.131 144.126 147.448 143.999 143.303 129.885C152.532 139.734 172.645 134.935 176.46 122.026C176.452 122.165 176.293 127.058 176.24 128.793Z" fill="#FF00FF"/>
<path d="M198.928 185.551C196.994 174.367 182.52 173.971 174.17 171.69C161.697 168.283 154.042 160.015 149.63 148.005C148.898 161.668 159.153 174.514 171.989 178.021C184.122 181.335 195.983 181.787 199.145 196.685C199.145 193.178 199.631 188.632 198.928 185.551" fill="#FF00FF"/>
<path d="M307.556 157.61C308.886 170.474 303.71 183.713 288.798 183.806C289.016 185.77 289.233 187.735 289.451 189.699C305.267 186.165 314.747 173.784 307.556 157.61Z" fill="#FFFFAA"/>
<path d="M300.579 147.354C299.283 155.274 277.362 155.943 276.367 147.79C270.759 151.15 278.56 156.279 282.037 157.177C289.843 159.193 299.209 156.103 300.579 147.354" fill="#FFFFAA"/>
<path d="M275.93 144.295C283.811 134.396 302.728 137.194 303.414 151.063C297.939 142.106 279.487 139.254 274.402 150.19C274.987 148.286 275.783 146.045 275.93 144.295" fill="#FFFF00"/>
<path d="M303.85 154.992C305.487 163.021 285.567 170.777 281.165 163.943C277.855 168.584 285.002 171.199 288.8 170.819C297.222 169.977 305.482 164.334 303.85 154.992Z" fill="#FFFFAA"/>
<path d="M279.636 160.889C282.098 148.713 303.57 144.592 307.774 157.614C299.624 150.719 281.217 155.014 280.29 167C280.15 165.038 280.031 162.477 279.636 160.889" fill="#FFFF00"/>
<path d="M256.298 114.387C260.866 122.522 267.774 122.803 275.93 123.993C287.912 125.741 296.05 131.484 301.015 142.766C300.47 130.605 291.306 121.497 279.965 118.971C270.16 116.787 258.327 117.739 255.644 105.001C255.917 107.951 256.631 111.829 256.298 114.387" fill="#FFFF00"/>
<path d="M272.219 65.708C272.325 73.203 273.649 79.7762 267.767 85.6617C263.927 89.5049 258.858 91.8146 253.46 91.9037C253.606 93.8684 253.751 95.833 253.897 97.7982C269.612 94.2139 279.524 82.1147 272.219 65.708" fill="#AAD4FF"/>
<path d="M265.241 55.4467C263.939 63.438 242.029 64.0588 241.029 55.8837C235.28 59.2038 242.837 64.3019 246.483 65.2701C254.241 67.3296 263.88 64.1961 265.241 55.4467Z" fill="#AAD4FF"/>
<path d="M240.593 52.3932C247.58 42.7621 269.214 45.1064 267.859 59.3794C263.536 47.9072 244.634 49.4167 238.848 58.2882C239.449 56.3326 240.086 54.3602 240.593 52.3932Z" fill="#007FFF"/>
<path d="M268.293 63.0901C270.485 71.1785 250.153 78.8453 245.826 72.0405C241.748 77.1219 250.632 79.1579 254.331 78.808C261.525 78.1279 271.398 71.4408 268.293 63.0901Z" fill="#AAD4FF"/>
<path d="M244.299 68.9817C247.086 57.1898 268.286 52.2654 272.22 65.7076C264.224 57.318 246.424 64.2043 244.736 75.0935C244.665 73.1379 244.635 70.5587 244.299 68.9817" fill="#007FFF"/>
<path d="M220.956 22.485C224.872 30.6658 232.657 30.963 240.371 32.0897C252.363 33.8414 260.621 39.5603 265.673 50.864C265.097 38.0474 255.214 29.3099 243.424 26.8513C233.673 24.8177 223.162 25.3533 220.302 13.0976C220.52 16.2267 220.738 19.3558 220.956 22.485" fill="#007FFF"/>
<path d="M169.918 52.6086C171.259 65.5137 166.062 78.7099 151.157 78.8042C151.375 80.7689 151.593 82.7336 151.811 84.6987C167.596 81.1618 177.151 68.8606 169.918 52.6086" fill="#FFFFAA"/>
<path d="M162.936 42.3496C161.621 50.3615 139.73 50.9564 138.722 42.7866C132.952 46.1833 140.807 51.2469 144.395 52.173C152.162 54.1779 161.576 51.0689 162.936 42.3496" fill="#FFFFAA"/>
<path d="M138.288 39.2937C145.73 29.9431 166.599 31.7202 165.555 46.2795C161.494 35.5352 141.635 35.5113 136.76 45.1878C137.346 43.2839 138.141 41.0425 138.288 39.2937" fill="#FFFF00"/>
<path d="M166.207 49.9906C168.024 58.147 148.035 65.6631 143.52 58.941C139.781 64.1277 148.429 66.0493 152.028 65.7085C160.274 64.9279 167.69 58.7319 166.207 49.9906" fill="#FFFFAA"/>
<path d="M141.994 55.8822C145.003 43.1675 164.923 40.3758 170.134 52.6076C162.077 45.7927 143.283 50.0341 142.651 61.994C142.51 60.0322 142.391 57.4659 141.994 55.8822Z" fill="#FFFF00"/>
<path d="M118.656 9.38741C123.218 17.5233 130.136 17.8028 138.288 18.9921C150.527 20.7778 157.995 26.5929 163.373 37.766C162.814 25.6318 153.649 16.4847 142.323 13.971C132.512 11.7948 120.69 12.7314 118 0C118.275 2.95014 118.989 6.82925 118.656 9.38741" fill="#FFFF00"/>
<path d="M218.995 194.722C224.599 194.603 224.015 186.012 218.559 186.863C213.418 187.664 215.209 194.828 218.995 194.722Z" fill="#FFAAAA"/>
<path d="M166.862 191.448C166.934 189.338 167.007 187.228 167.08 185.117C161.751 185.117 160.101 183.587 160.101 189.219C160.101 193.035 164.413 191.448 166.862 191.448" fill="#FFAAAA"/>
</svg>
